<svg width="24" height="24" viewBox="0 0 24 24" fill="none" xmlns="http://www.w3.org/2000/svg">
<g clip-path="url(#clip0_667_511)">
<path d="M21.5835 7.21229C21.353 6.34104 20.6763 5.65636 19.8153 5.42313C18.2545 5 12 5 12 5C12 5 5.74547 5 4.18637 5.42313C3.32532 5.65636 2.64867 6.34104 2.41818 7.21229C2 8.78988 2 12.0833 2 12.0833C2 12.0833 2 15.3768 2.41818 16.9544C2.64867 17.8256 3.32532 18.5103 4.18637 18.7435C5.74547 19.1667 12 19.1667 12 19.1667C12 19.1667 18.2545 19.1667 19.8136 18.7435C20.6747 18.5103 21.3513 17.8256 21.5818 16.9544C22 15.3768 22 12.0833 22 12.0833C22 12.0833 22 8.78988 21.5818 7.21229H21.5835ZM9.99967 15.1186V9.0481L15.1956 12.0833L9.99967 15.1186Z" fill="white"/>
</g>
<defs>
<clipPath id="clip0_667_511">
<rect width="20" height="14.1667" fill="white" transform="translate(2 5)"/>
</clipPath>
</defs>
</svg>
